<svg id="Capa_1" data-name="Capa 1" xmlns="http://www.w3.org/2000/svg" viewBox="0 0 1080 1080"><path d="M509.66,612.16c-2.33,2.21-3.87,3.61-5.34,5.07Q432.5,689,360.64,760.65a14.1,14.1,0,0,0-4.49,11c.16,52.94.28,105.89-.06,158.83a41.21,41.21,0,0,1-4.62,18.7c-6.39,11.82-20.09,16.69-32.89,13.17-13.07-3.59-21.87-15-22-29.3-.2-27.67-.07-55.34-.08-83V825.41c-2.65,2.37-4.25,3.68-5.71,5.13-15.66,15.58-31.11,31.38-47,46.74-12.86,12.44-31.06,11.3-42.83-2.11-10.55-12-9.87-28.28,2-40.31,15.37-15.58,30.94-31,46.42-46.46,1.32-1.33,2.56-2.75,4.69-5.06-3.37-.15-5.46-.33-7.55-.33-33,0-66.08,0-99.13-.06-15-.05-26.51-8.49-30.18-21.59-5.48-19.51,8.7-37.92,29.64-38,35.43-.16,70.86,0,106.29,0,18.91,0,37.82.11,56.73-.11a11.31,11.31,0,0,0,7.31-2.73Q390.56,646.89,463.61,573c.54-.54,1-1.2,2.19-2.73-2.56-.19-4.36-.44-6.16-.45q-100.62,0-201.24.16a14.6,14.6,0,0,0-9.15,4.07Q191.77,631,134.61,688.26c-8.92,8.9-19.39,12.55-31.56,7.79-11.74-4.59-18.67-13.32-19.79-26-.8-9.11,2.81-16.68,9.19-23.06q35.89-35.88,71.8-71.74a33.18,33.18,0,0,1,4.37-3.17l-.75-1.84c-2.19-.12-4.39-.34-6.58-.35-22.49,0-45,.16-67.48,0-16.87-.15-29.28-10.69-31.38-26.1C60,526.16,73.72,510.54,92.28,510.29c23.08-.31,46.18-.11,69.27-.13,2.08,0,4.17,0,6.26,0l.68-1.62c-9.6-9.45-19.25-18.85-28.8-28.35Q116.41,457,93.23,433.76c-13.15-13.22-13.55-30.67-1.12-42.95s29.8-11.92,43,1.25q56.26,56,112.31,112.3a18,18,0,0,0,14.05,5.82c65.88-.2,131.76-.13,197.65-.13h8.46c-2.07-2.37-3.08-3.68-4.25-4.85q-70.1-70.06-140.34-140a15.4,15.4,0,0,0-9.77-4C258.11,361,203,361,147.83,361c-15.31,0-26.94-8.41-30.63-21.8a29.56,29.56,0,0,1,28.69-37.71c35.23-.24,70.46-.08,105.7-.08h7.33c-2.31-2.51-3.64-4.07-5.08-5.51-17-17-34.15-34-51.08-51.1-9.43-9.55-11.65-21.79-6.46-32.9a30.49,30.49,0,0,1,29.29-17.81c8,.47,14.35,4.25,19.88,9.78q22.79,22.8,45.63,45.56c1.35,1.34,2.82,2.57,5.16,4.69.15-3.25.32-5.32.32-7.39q0-46.27,0-92.56c0-8.43,1.64-16.2,7.29-22.76a29.77,29.77,0,0,1,32.55-8.75,29.27,29.27,0,0,1,19.84,27.81c.24,26.28.12,52.55.13,78.82,0,26.87-.07,53.75.15,80.62a12.2,12.2,0,0,0,3,7.8q73.21,72.85,146.73,145.42c.81.8,1.76,1.45,3.42,2.8.14-2.92.32-5,.32-7.07q0-99.43.12-198.85c0-4.82-1.57-8.07-4.92-11.39q-56.57-56.15-112.92-112.53c-9.1-9.05-13.29-19.53-8.87-32,4.21-11.83,13-18.94,25.65-20.31,9.81-1.07,17.77,3,24.59,9.84q34.59,34.65,69.2,69.28c1.9,1.91,2.95,4.66,4.4,7l2.43-1.92c.11-1.68.32-3.37.32-5.06,0-22.69,0-45.38.08-68.07.06-18.55,12.73-32.22,29.66-32.15,17.54.07,30,13.45,30.05,32.41,0,21.7,0,43.39,0,65.09v9.23c2.55-2.29,4.13-3.57,5.56-5,23.81-23.76,47.53-47.62,71.44-71.27,12.59-12.45,29.58-12.81,41.69-1.32,12.76,12.1,13,30,.16,42.94-20.14,20.38-40.5,40.56-60.77,60.81-18.16,18.15-36.41,36.22-54.4,54.54a13,13,0,0,0-3.53,8.17q-.29,100.92-.13,201.83c0,1.52.19,3,.37,5.72,2.19-1.9,3.66-3,5-4.35q69.93-69.82,139.9-139.6c3.12-3.1,4.17-6.23,4.16-10.49q-.19-80.33-.08-160.64c0-15.62,9.69-27.94,23.89-30.77,18.59-3.71,35.63,10.18,35.74,29.55.18,33,0,66.08.06,99.12V258.9c2.32-2,3.77-3.16,5.07-4.46,17.5-17.4,34.87-34.93,52.51-52.19a28.15,28.15,0,0,1,32-5.7c11.2,5.18,18.5,16.8,17.88,28.69-.42,8.18-4.21,14.76-9.91,20.44-16.08,16-32.07,32.11-48.22,48.05-2.08,2.06-4.89,3.37-7.36,5,.56.9,1.12,1.79,1.69,2.68h7.41q48.36,0,96.73,0c19.23,0,32.56,12.16,32.63,29.61.08,17.63-13.44,30.07-32.91,30.08q-79.43,0-158.84-.11A14.65,14.65,0,0,0,756,365.77q-69.31,69.57-138.89,138.91c-1.36,1.35-2.64,2.79-5.19,5.52h8.45q99.44,0,198.85.11a16.05,16.05,0,0,0,12.5-5.2Q888.19,448.41,944.91,392c15.19-15.14,37.1-12.74,47.75,5.07,7,11.69,5.1,25.54-5.31,36q-35.77,36-71.75,71.8c-1.32,1.33-2.55,2.75-5,5.34h9.09c22.69,0,45.38-.15,68.07.05,12.21.11,21.41,5.9,26.81,16.85,5.09,10.31,4.06,20.56-2.5,30s-15.77,12.83-26.84,12.79c-22.3-.08-44.59,0-66.88,0h-7.62c2.29,2.54,3.56,4.07,5,5.49q34.49,35.16,69,70.31c10.79,11,13.34,23,7.7,34.73C983,700.13,959.53,704,943.7,688.2q-42.54-42.33-84.91-84.82c-10.14-10.12-20.2-20.34-30.53-30.27a11.5,11.5,0,0,0-7.18-3.1q-102.11-.25-204.22-.12c-1,0-1.94.21-4.1.46,1.78,2,2.94,3.43,4.24,4.72q72,72,143.92,144c3.29,3.31,6.57,4.36,11,4.35q77.93-.13,155.85,0c21.69.06,36.2,18.85,30.15,38.58-3.88,12.67-15.23,21-29.4,21-31.65.11-63.3,0-94.95,0H826c1.7,2.14,2.49,3.37,3.51,4.39,15.87,15.93,31.88,31.73,47.64,47.76,9.6,9.76,11.63,22.12,6,33.46a30.12,30.12,0,0,1-30.28,17c-7.5-.78-13.42-4.57-18.63-9.79Q809.38,851,784.44,826.09c-1.48-1.47-3.05-2.86-5.64-5.29v7.11c0,35,.13,70.06-.07,105.09-.08,13.16-6.31,23-18.59,28.07-11.8,4.88-22.74,2.49-32-6.19-6.63-6.19-9.11-14.16-9.09-23.17q.11-64.2,0-128.39c0-12.74.11-25.48-.13-38.22a10.73,10.73,0,0,0-2.52-6.82q-71.85-72.1-144-144a16.25,16.25,0,0,0-2.1-1.38c-.19,2.07-.45,3.7-.46,5.33q0,101.52.16,203a14.61,14.61,0,0,0,4.1,9.14q56.57,57,113.45,113.69c14.56,14.59,13.75,34.44-1.69,46.2-12.36,9.41-27.46,8.1-39.4-3.75q-33.06-32.8-65.87-65.85c-3.07-3.09-5.69-6.61-8.52-9.93l-2,1c-.09,2-.26,4-.26,6.05-.05,23.29.1,46.58-.16,69.86A29.37,29.37,0,0,1,547,1016.38c-12.78,3.17-26.51-2.25-32.58-14a40.18,40.18,0,0,1-4.16-17.08c-.45-22.48-.16-45-.14-67.47V909c-2.83,2.57-4.67,4.13-6.37,5.82q-35.17,35.12-70.34,70.25c-10.24,10.19-23.42,12.61-34.92,6.64a30.18,30.18,0,0,1-16.35-31.22c1.15-7.94,5.87-13.7,11.33-19.14q56.43-56.3,112.66-112.8a13.78,13.78,0,0,0,3.75-8.69q.31-100.92.15-201.83C510,616.49,509.84,615,509.66,612.16Z"/></svg>