<svg id="Capa_1" data-name="Capa 1" xmlns="http://www.w3.org/2000/svg" viewBox="0 0 1080 1080"><path d="M919.81,145.13c-38.81-38-91-44.3-135.51-16.45C737,158.29,714.89,212.1,731.61,259.83c12.72,36.34,38.64,60.88,73.49,76.14V489.38h-265c0-49.71-.24-98.45.48-147.19,0-3.75,6.24-8.57,10.64-10.92,25.08-13.37,44.85-32,57.42-57.53,19.66-39.87,14.58-78-11.95-112.68-26.16-34.16-60.33-54.66-105-48.5-50.18,6.93-93.73,50.17-100.94,97.5-7.43,48.75,20.18,98.38,68.9,121.27,10.12,4.76,13.65,10,13.46,20.81-.6,33.26-.23,66.54-.23,99.8v37.37H275.24c-.79-2.39-1.66-3.82-1.66-5.25-.09-46.26-.38-92.53.32-138.78.07-4.43,5.46-10.56,9.94-12.85,25.35-12.95,45.39-31.24,58.38-56.52,20.25-39.42,16.59-77.83-9.42-113-26.31-35.53-61.13-56.86-107.13-50.26-51,7.31-93.55,50.62-100.45,99.57-6.73,47.78,21.5,96.56,69.64,119.49,7.45,3.55,12.29,6.36,12.25,16.46q-.71,191-.13,382.06c0,9.06-2.67,13.39-11.12,17.11-26.06,11.45-45.81,30.44-59,55.63-20.85,39.91-17.09,78.81,9.61,114.21,27.34,36.26,63.21,57.49,110.52,49,48.14-8.63,89.38-51,96.39-96.66,7.24-47.07-18.68-95.82-64.77-119.22-11-5.61-15.9-11.16-15.58-24.32,1.05-43.12.39-86.28.39-129.42V557.87h199.5v168c0,2.6,1,5.79-.2,7.68-2.86,4.68-5.8,10.6-10.28,12.77-25.64,12.42-45.81,30.47-59.39,55.44-20.85,38.36-18.56,76.18,6.12,111.71,25.69,37,60.64,58.8,107.1,54,46.08-4.78,88.73-42.87,100.28-88.88,12-47.81-4.3-89.71-43.9-114.27-30.95-19.2-34.29-41.32-33.09-71.89,1.75-44.54.45-89.2.45-135.63h17.84q139.59,0,279.17-.11c22.28,0,36.38-14,36.26-35.67-.29-55.6-.26-111.21-1.26-166.8-.22-12.19,3.59-17.71,14.78-23.05C964.26,294.16,979.92,204,919.81,145.13ZM288.18,851.73c.35,32-16.72,49.78-48.11,50.11s-49.13-17.12-49.31-48.9c-.18-31.33,16.75-48.91,47.24-49.08C270.49,803.69,287.83,820.23,288.18,851.73ZM239.37,275.56c-32,0-48.66-16.89-48.61-49.17.06-31.28,16.71-48.06,47.93-48.28,32.78-.23,49.77,16.94,49.48,50C287.9,258.87,270.75,275.56,239.37,275.56ZM553.48,853.44c-.19,30.78-17.52,48.14-48.31,48.4-31.45.27-49.06-17.36-49-49.07S472.93,804,503.51,804C536.77,804,553.69,820.76,553.48,853.44ZM503.6,275.62c-30.67,0-47.37-17.16-47.44-48.75-.07-32.24,16.6-48.8,48.93-48.61,31.58.19,48.17,16.57,48.39,47.78C553.71,258.76,536.76,275.6,503.6,275.62Zm336.46.16c-30.45-.24-47.35-17.77-47.31-49.09,0-31.72,17.42-48.85,49.32-48.59,31.17.25,48.21,17.31,48.12,48.18C890.1,259.05,872.89,276,840.06,275.78Z"/><path d="M946.82,911.32c-12.88-18.15-25.82-36.27-39.52-55.5,6.85-5.76,12.68-10.13,17.9-15.13,43.42-41.64,38.5-103.64-12.73-134.94-16.08-9.83-36.49-15-55.48-17-26.17-2.84-52.89-.86-79.37-.66-25.61.19-37.92,12.61-38,38.56q-.21,102,0,203.89c0,23.14,13.89,38.39,33.9,37.92,19.12-.44,32.3-15.9,32.37-38.09.06-19.56,0-39.12,0-57.61,21.45-6.68,34,.14,44.39,17.49,12.51,20.86,27.93,40,42.27,59.7,14.14,19.46,32.88,24,49.45,12.15S960.38,930.45,946.82,911.32ZM868,802.19c-19.95,1.51-40.11.37-61.37.37V755.17c20.75,0,40.74-.14,60.73.05,12.54.11,20.59,5.11,20.9,19.23C888.66,791.19,883.15,801.05,868,802.19Z"/></svg>