<svg id="Capa_1" data-name="Capa 1" xmlns="http://www.w3.org/2000/svg" viewBox="0 0 1080 1080"><path d="M405,740.47l-38.69-36.55L510.68,542.49,366.2,381.55l38-36.32c13.79,13.48,28.25,27.5,42.58,41.65,12.76,12.6,25.14,25.59,38.2,37.87,3.55,3.34,8.94,4.73,13.48,7,1.71-4.75,4.86-9.49,4.9-14.26.45-65.49.48-131,.61-196.47,0-3.77,0-7.54,0-12.89,70.13,71.45,139,141.59,209.18,213.14L589.69,539.84l125.1,122.24L503.6,873.3c0-20.17,0-42.16,0-64.15-.05-47.55,0-95.11-.38-142.67,0-4.55-2.64-9.08-4.05-13.62-4.6,2.14-10.23,3.22-13.62,6.57C458.4,686.27,431.67,713.54,405,740.47ZM560,417.26c0,18.68-.2,37.36.19,56,.07,3.36,1.91,8.83,4.09,9.49,3.33,1,8.9-.08,11.37-2.49,18.71-18.15,37.17-36.59,54.91-55.68,2.39-2.56,2.4-11.18,0-13.71-17.85-19-36.43-37.3-55.22-55.37-2.52-2.42-7.93-3.72-11.21-2.77-2.13.61-3.89,6.21-4,9.62C559.8,380.67,560,399,560,417.26Zm0,248.42c0,18.65-.19,37.31.17,56,.07,3.42,2,9.42,3.73,9.65,4,.53,9.64-.38,12.39-3,18.47-17.78,36.6-35.94,54.17-54.61,2.38-2.53,3.08-10.53,1.05-12.69-18.38-19.51-37.41-38.41-56.64-57.08-2.29-2.21-7.66-3.53-10.36-2.37-2.39,1-4.22,6.06-4.29,9.37C559.77,629.14,560,647.41,560,665.68Z"/></svg>