<svg id="Capa_1" data-name="Capa 1" xmlns="http://www.w3.org/2000/svg" viewBox="0 0 490.79 936.49"><path d="M349.27,821.22,294.8,769.77,498,542.49,294.6,315.89l53.55-51.14c19.42,19,39.78,38.71,60,58.64,18,17.74,35.4,36,53.78,53.32,5,4.7,12.58,6.66,19,9.89,2.4-6.7,6.85-13.37,6.9-20.08.64-92.2.68-184.41.86-276.62,0-5.31,0-10.62,0-18.14C587.36,172.35,684.27,271.1,783.14,371.83L609.27,538.76,785.4,710.86,488.06,1008.24c0-28.4,0-59.36,0-90.31-.07-67,0-133.92-.53-200.87,0-6.41-3.72-12.79-5.71-19.18-6.47,3-14.4,4.53-19.17,9.25C424.41,744.92,386.78,783.32,349.27,821.22ZM567.45,366.16c0,26.3-.28,52.61.26,78.9.1,4.73,2.7,12.45,5.77,13.37,4.69,1.4,12.52-.12,16-3.5,26.34-25.56,52.33-51.53,77.31-78.4,3.36-3.61,3.38-15.74,0-19.3-25.14-26.73-51.3-52.52-77.76-78-3.54-3.41-11.16-5.24-15.77-3.9-3,.86-5.49,8.74-5.59,13.54C567.18,314.65,567.46,340.41,567.45,366.16Zm0,349.76c0,26.27-.27,52.54.24,78.8.1,4.8,2.86,13.26,5.25,13.58,5.63.75,13.57-.54,17.44-4.26,26-25,51.54-50.61,76.28-76.9,3.34-3.55,4.33-14.82,1.47-17.86-25.87-27.46-52.66-54.08-79.75-80.36-3.22-3.12-10.79-5-14.58-3.34-3.37,1.46-6,8.53-6,13.19C567.14,664.48,567.44,690.2,567.41,715.92Z" transform="translate(-294.6 -71.76)"/></svg>