<svg id="Capa_1" data-name="Capa 1" xmlns="http://www.w3.org/2000/svg" viewBox="0 0 1080 1080"><defs><style>.cls-1{fill:#fff;}.cls-2{fill:#ffb800;}</style></defs><circle class="cls-1" cx="540" cy="540" r="510.86"/><circle class="cls-2" cx="540" cy="540" r="413.33"/><path d="M325.65,352.88c5.17,37.32,14.8,50.53,36.25,50.58,21.74.06,32.14-13.86,37.05-50.64H597.16c6.66,37.13,15.87,49,37.6,48.52s30.41-12,36-47.68c27.22-5.94,45.37,6.14,46.28,33,1.2,35.23.5,70.53.6,105.79,0,8.05,0,16.1,0,25.54H684.39V453.74H315.2V687.66H514.12V722c-26,0-51.86.15-77.7,0-39.29-.28-78.64.25-117.87-1.59C290.27,719,280.21,708,280,679.69q-1.16-143.09-.69-286.19C279.4,363.34,293.88,351.54,325.65,352.88Z"/><path d="M800.89,670.87A130.08,130.08,0,0,1,671.42,801.81c-71.91.34-130.93-57.7-131.47-129.31-.55-72.41,58.3-131.89,130.68-132.08C742.12,540.24,800.63,598.84,800.89,670.87ZM671.4,570c-56.46-.15-101.73,44.24-102.52,100.52-.79,55.55,44.92,101.76,101,102.1S772,727.83,772.24,672C772.51,615.87,727.32,570.13,671.4,570Z"/><path d="M546.25,541.73V476h67v65.72Z"/><path d="M612.14,332.25c0-10.93-.51-21.88.13-32.77.81-13.69,9.26-21,22.47-21.28,12.66-.24,21.65,7.51,22.26,19.65a649.5,649.5,0,0,1-.22,72.37c-.74,12.29-10.61,19.32-23,18.78s-20.62-7.66-21.4-20.55c-.73-12-.16-24.13-.16-36.2Z"/><path d="M384.72,333.9c0,10.92.35,21.85-.06,32.76-.51,13.62-8.36,21.7-21.55,22.29s-22.78-7.29-23.47-20.35a605.36,605.36,0,0,1,.13-70.64c.82-12.85,10.39-20.58,24-19.65,12.54.86,20.12,8.42,20.84,21.12C385.21,310.88,384.7,322.41,384.72,333.9Z"/><path d="M446.25,475.69c20.09,0,38.49-.53,56.81.42,3.84.2,10.4,5.69,10.59,9,1,18.77.49,37.63.49,57.31H446.25Z"/><path d="M345.49,542.8V477.59h66.94V542.8Z"/><path d="M413.35,571.79v64.9H346.48v-64.9Z"/><path d="M446.29,636V571.46h67.14V636Z"/><path d="M647.21,646.94c0-8.08.14-16.17,0-24.25-.22-10,1.23-19.71,13.57-20s14.51,9,14.38,19.25c-.16,13.28-1,26.66.44,39.79.58,5.54,4.87,12.5,9.59,15.41,11.72,7.23,25.4,11.41,36.77,19.06,5.19,3.49,10.54,13.2,9.25,18.49-2.53,10.44-12,10.55-21.08,5.94-7.72-3.9-15.31-8.39-23.47-11C655.72,699.65,637.27,682.34,647.21,646.94Z"/></svg>