<svg id="Capa_1" data-name="Capa 1" xmlns="http://www.w3.org/2000/svg" viewBox="0 0 1080 1080"><defs><style>.cls-1{fill:#fff;}.cls-2{fill:#ffb800;}</style></defs><circle class="cls-1" cx="540" cy="540" r="510.86"/><circle class="cls-2" cx="540" cy="540" r="413.33"/><path d="M707.18,596c3.21-3.91,6.33-7.78,9.51-11.6,5-6.06,12-7.29,17.21-3.08,5.35,4.33,5.71,11.28.77,17.45-6.63,8.27-13.21,16.59-20.1,24.64-2.44,2.85-3,5.58-2.55,9.16q5.75,51.13,11.1,102.32a12.39,12.39,0,0,1-2,7.36c-3.18,4.93-6.85,9.56-10.5,14.18a34.38,34.38,0,0,1-4.28,4c-16.15-38.5-32.18-76.7-48.49-115.55-2.17,1.67-3.33,3.23-4.69,3.44-2.08.33-5.29.5-6.22-.68-1.16-1.5-1.49-5.78-.49-6.5,10-7.18,1.47-13.26-.76-20.35-1.46,1.1-2.51,2.53-3.73,2.68-2.24.28-5.47.65-6.62-.58s-1.36-5.78-.33-6.49c7.51-5.19,3.69-10.4.66-15.75-.48-.85-1-1.67-1.74-2.85-3,2.57-6.43,5.47-9.62,1.61-4.62-5.61,1.9-8,4.5-12.15-3.64-6.61-7.41-13.45-10.89-19.75-4.06,1.94-7.56,4.14-11.39,5.17-1.45.39-4.12-1.54-5.4-3.09-7.75-9.41,2.88-12.32,6.87-18L599.49,541c-4,4-7.48,7.81-11.17,11.39q-53.73,52.26-107.56,104.41c-2.44,2.37-3.19,4.34-2.63,7.8q7.29,44.82,14.07,89.71c1.67,11,1,21.85-4.25,32a38.35,38.35,0,0,1-3.71,6c-4.1,5.24-6.2,5-9.07-1L430.9,699.48c-.65-1.34-1.41-2.63-2.16-4L389.2,722.62l-1.11-.91L409,679.13l-43.84-17.22-56.35-22.07c-4.73-1.85-5.34-4-1.58-7.58,8.15-7.75,18.15-12,29.26-11.69,20.5.64,41,2,61.45,3.47,13.09.91,26.13,2.5,39.21,3.5a7,7,0,0,0,5.34-2.25q50.48-66.93,105.47-130.18c.33-.38.58-.82,1.24-1.76l-9.11-5.77c-2,2.83-3.83,5.42-5.75,7.91-2.76,3.59-7.09,4-11.12,1.11s-5.09-7-2.61-10.85c1.16-1.79,2.43-3.51,4-5.77-7.11-3-13.63-6.1-20.43-8.38-1.27-.43-3.5,2.68-5.54,3.63s-4.64,2.09-6.59,1.6c-1.35-.34-2.64-3.28-2.8-5.15-.13-1.54,1.45-3.22,2.46-5.22-3.7-1.42-7.21-2.95-10.85-4a5.31,5.31,0,0,0-3.81,1c-1.07.7-1.73,2-2.56,3.08-2.17,2.73-4.92,3.89-7.88,1.67s-2.71-5.14-.54-8c.5-.64,1-1.33,1.8-2.54-4.5-1.65-8.64-3.31-12.9-4.61-.95-.29-2.51.42-3.38,1.15a33.68,33.68,0,0,0-3.23,3.86c-2.18,2.51-5.22,3.51-7.39,1-1.32-1.52-.95-4.67-.91-7.09,0-.95,1.18-1.88,2.67-4.06l-119.9-36.34a26.71,26.71,0,0,1,2.57-4c8.69-10,18-17,32.94-16.31,30.4,1.41,60.89.86,91.34,1.29,3.28.05,5.63-.63,8-3.05,7.34-7.65,14.91-15.08,22.44-22.54,6-5.94,12.79-6.43,17.79-1.38,4.82,4.87,4.17,11.91-1.65,17.82-3.19,3.23-6.39,6.45-9.57,9.7-.19.2-.15.62-.29,1.28,11.09.93,22.32.86,33.1,3.05,12.73,2.58,21.87-.93,29.47-11.11,3.49-4.67,8.14-8.49,12.4-12.56,5.19-5,12.14-5.16,16.71-.66,4.85,4.77,4.63,11.61-.59,17.05-3.49,3.64-7,7.22-10.54,10.84-.09.09,0,.31-.14,1,10.21,1.43,20.44,2.82,30.64,4.32,7.83,1.15,15.66,2.23,23.42,3.73,3.66.7,6.1,0,8.88-2.7q45.24-44,90.87-87.56c5.32-5.07,11.5-9.3,17.52-13.59,7.46-5.32,16-6.69,25-5.87a12.68,12.68,0,0,1,11.56,10.83c2.78,18.36-4,33.78-15.35,47.45-23.41,28.24-47.1,56.24-70.7,84.32-4.22,5-10.82,9.42-12.15,15.08s2.65,12.5,4.25,18.84c3.34,13.19,6.64,26.38,10.17,40.44,3.67-4.44,6.88-8.39,10.16-12.28,4.92-5.86,11.6-7,16.85-2.85s5.81,11.39,1,17.42c-6.42,8-13,15.88-19.31,24a8.33,8.33,0,0,0-1.8,5.75c2.65,15.24,5.6,30.43,8.49,45.62C706.25,595.11,706.6,595.32,707.18,596Z"/></svg>