<?xml version="1.0" encoding="UTF-8"?>
<svg id="Capa_2" data-name="Capa 2" xmlns="http://www.w3.org/2000/svg" viewBox="0 0 1871.6 1227.47">
  <defs>
    <style>
      .cls-1 {
        fill: #fff;
      }
    </style>
  </defs>
  <g id="Layer_1" data-name="Layer 1">
    <g>
      <g>
        <path d="m1495.1,0c17,38.8,32,78.5,48.6,117.6,16,39.3,33.6,77.9,49,117.5,15.8,38.7,31.6,77.3,48.2,115.7,14.2,36.8,30.5,72.8,45.2,109.4,21.2,49.7,41.7,99.7,62.9,149.4,21.8,52.8,44.6,105.2,66.9,157.8,10.9,24,20.2,48.6,31.3,72.5,7.2,20.3,17.5,39.4,24.4,59.8-50.7.2-101.4-.4-152.2.4-20-48.2-37.8-97.2-56.7-145.8-16.3-42.1-32.5-84.3-48.8-126.4-6.9-17.9-13.4-35.9-20.8-53.6-4.9-15.2-11.2-30-16.8-44.9-27.2-70.9-53.6-142-80.5-213-6.5,15.3-12,31-18,46.5-33,88.2-66.8,176.2-99.9,264.4-29.9,80.2-60.7,160.1-90.5,240.4-3.6,10.1-8.4,19.9-10.4,30.5-7.9,2.1-16.2,1.4-24.3,1.5h-129.1c2.7-8.7,6.7-16.9,10.1-25.3,31.9-77.6,64.1-155.1,96.3-232.5,36.6-90.5,75.6-180,112.6-270.3,31.9-77.3,63-154.8,94.9-232.1,19.7-46.5,38.3-93.2,57.6-139.5Z"/>
        <path d="m472.2,1053.8c21.3-.1,42.5-.6,63.7,1,17.5,1,36.6,3.7,49.9,16.4,17.6,16,19.8,43.8,10.3,64.6-5.9,12.9-18.3,20.9-30.8,26.4,13.8,20.8,27.7,41.4,41.5,62.2-9-.1-18-.6-27,.1-12-19.5-24.7-38.5-37.9-57.3-4-2.6-8.9-1.9-13.4-2.1-11.1.1-22.2,0-33.3.1v59c-7.6,0-15.3.2-22.9-.2-.4-56.7-.4-113.5-.1-170.2Zm23,20.3v71.1c17.6-.2,35.3.5,52.9-.4,5.8.4,11.3-2.6,16.1-5.5,18.6-12.3,19.5-43.2,2.1-56.8-5.9-4.1-12.9-7.3-20.2-7.5-16.9-1.7-33.9-.6-50.9-.9Z"/>
        <path d="m771.7,1053.4c19.4.6,38.8,0,58.2.9,18.5,1.2,38.8,2,53.7,14.6,18.9,14.9,22.4,42.9,13.8,64.3-5.3,14.2-18.3,23.5-32.1,28.8,14.4,20.7,28.1,41.8,42.4,62.6-9.1-.5-18.2-.4-27.3-.2-11.5-19.1-24.3-37.4-36.5-56-2.8-3.6-7.4-3-11.4-3.1-12.5.1-25,0-37.5.2-.1,19.6.1,39.3,0,58.9-7.8,0-15.5-.1-23.3.3.6-57.2.5-114.3,0-171.3Zm23.2,20.7v71.1c18.3-.3,36.7.7,55.1-.6,6.6-.1,12.8-3.6,17.9-7.8,18.7-15.9,13.4-53.7-12.1-59.3-4.1-1.7-8.4-3.1-12.8-3.1-16.1-.6-32.1-.2-48.1-.3Z"/>
        <path d="m967.1,1053.7c38.2-.3,76.5.5,114.7-.4.4,7,.5,14.1-.2,21.2-30.3-.9-60.6-.3-90.9-.3l-1.9.1c.6,17.8.2,35.7.3,53.5,28.6-.3,57.2-.1,85.8-.1-.3,6.5-.4,13-.5,19.5-28.5.1-56.9-.1-85.4.1.2,18.7.3,37.4,0,56.1h96.1c.2,6.9.2,13.8,0,20.8-39.3,0-78.7.1-118,0-.3-56.8-.2-113.6,0-170.5Z"/>
        <path d="m1730.1,1053.9c7.4-.2,14.8-.4,22.2,0,.4,49.7.7,99.5,0,149.2l1.6-.1c30.5,1.1,61-.1,91.5.6-.1,6.8,0,13.6.1,20.5-38.5.2-76.9.2-115.4,0,.1-56.7.2-113.5,0-170.2Z"/>
      </g>
      <g>
        <path d="m1047.9,13.4c14.5-.5,29-.4,43.5-.7-42.8,63.3-66.4,137.2-83.8,210.9-1.1,4.1-2,8.2-2.5,12.4l-2.4-.2c-33.9-3.4-68.2-3.1-102.1,0,13.8-29.7,27.6-59.6,43.9-88,27.6-49.5,60.3-97,103.4-134.4Zm-24.6,48.8c-28.2,44.8-50.5,93.1-72.2,141.4,8-.9,16.1-1.4,24.2-1.6,16.3-50.5,37-99.7,63.9-145.5-5.3,1.9-11.3,2.5-15.9,5.7Z"/>
        <path d="m880.1,289.5c33.9.8,67.8-.8,101.7,1.4,3.8.3,7.6.8,11.4,1.2-9.2,53.9-19,107.8-23.3,162.3-1.1,11.6-2.3,23.2-3.2,34.8-1,15.4-3.7,30.7-3.2,46.1-.6,1-1.7,3.1-2.3,4.2-53,.2-106-.3-159,.3,10-41.5,21.9-82.5,33.8-123.5,12.6-43,27.3-85.3,44.1-126.8Zm32.2,33.9c-10.6,33.7-19.7,67.9-27.2,102.4-5.8,25.8-12.7,51.4-18.1,77.3,12.7-.3,25.4.1,38-.1l1.2-1.4c8.1-59.9,18.5-119.6,32.6-178.5-8.8,0-17.7.2-26.5.3Z"/>
        <path d="m790,602.8c56.3-.7,112.6,0,168.9-.3-.6,17.2-1.9,34.4-1.7,51.6-.7,27.7-2.3,55.5-2.1,83.3-1.7,54.1-2.4,108.3-2,162.5h-1.7c-63.3-.3-126.6-.1-189.9-.1h-2.2v-1.8c.1-20.8,0-41.6,1.5-62.3.1-2.8.3-5.5.4-8.2,3.6-55.1,9.2-110,17.6-164.6,2.9-17.6,6.5-35.1,9.6-52.7.6-2.6,1.1-5,1.6-7.4Zm55.8,37.2c-2.8,35.2-5.9,70.2-9.1,105.4.1,18.2-2.9,36.2-2.4,54.4-2,19.9-1.4,39.9-3.6,59.8,16.5.1,33-.2,49.5.2.5-19.3,1.6-38.7,2.1-58-.6-21.5,2.5-43,2.1-64.5,0-12.6,2.3-25,2.1-37.5.7-20.1,3.9-39.9,4.8-60-15.2.3-30.3-.3-45.5.2Z"/>
      </g>
      <g>
        <path d="m0,33.2c54.6,0,109.2-.4,163.7.3,53,143.4,108.8,285.9,163,428.8,20.8,54.2,41.1,108.5,61.9,162.6,2.1,6.7,4.5,13.3,7.8,19.4,1.3-3.8,2.6-7.6,4-11.3,18.7-46,35.5-92.7,53.4-139.1,58-153.2,115.6-306.5,170.9-460.6,53.3-.6,106.7-.3,160.1-.2-33.6,86.2-68.8,171.9-102.8,258-83.4,206.4-164.9,413.6-247.9,620.2-13.3,32.4-25.5,65.3-39.3,97.5-33.9-83.6-67.1-167.5-101-251.2C195.5,516.3,98.2,274.6,0,33.2Z"/>
        <path d="m1150.4,1053.7c6.9-.1,13.7-.1,20.6.4,33.2,41.7,66.6,83.3,100.3,124.6,2.1,3,4.3,5.8,6.6,8.7,0-44.5-.2-89.1.1-133.6,7.6-.1,15.1-.1,22.7-.1.3,56.3-.4,112.6.4,168.9l.1,2c-7.7-.5-15.5-.5-23.2-.4-32.3-42.8-66.1-84.5-99.7-126.3-1.5-1.9-3.1-3.7-4.6-5.6-.1,43.9-.1,87.9,0,131.8-7.9,0-15.7,0-23.6.2.5-56.8,0-113.7.3-170.6Z"/>
      </g>
      <path class="cls-1" d="m1023.3,62.2c4.6-3.2,10.7-3.8,15.9-5.7-26.9,45.8-47.6,95-63.9,145.5-8.1.2-16.2.7-24.2,1.6,21.7-48.2,43.9-96.5,72.2-141.4Z"/>
      <path class="cls-1" d="m912.3,323.4c8.8-.1,17.7-.4,26.6-.3-14.1,58.8-24.5,118.5-32.6,178.5l-1.2,1.4c-12.7.2-25.4-.1-38,.1,5.3-25.9,12.2-51.5,18.1-77.3,7.4-34.5,16.4-68.7,27.1-102.4Z"/>
      <path class="cls-1" d="m845.8,640c15.2-.5,30.3.1,45.5-.3-.9,20-4,39.9-4.8,60,.2,12.6-2.1,25-2.1,37.5.4,21.5-2.7,43-2.1,64.5-.5,19.3-1.6,38.7-2.1,58-16.5-.4-33-.1-49.5-.2,2.1-19.9,1.6-39.9,3.6-59.8-.5-18.2,2.6-36.2,2.4-54.4,3.2-35,6.3-70.1,9.1-105.3Z"/>
      <path d="m100.6,1066.8c35.4-25.3,91.6-20.8,118,15.4-5,4.5-9.9,9.1-14.9,13.7-12.2-13.5-29.2-23.5-47.7-23.6-32.2-2.8-63.6,23-68.5,54.7-1.4,8.6-1.5,17.5,0,26.1,3.8,23,21.4,43.7,44,50.1,11.6,3.7,24.2,4.1,36.2,1.9,15.4-2.1,28.1-11.8,38.1-23.1,4.8,4.3,9.4,8.9,13.8,13.6-26.5,35.3-81.2,41.3-117.4,17.9-21.9-14.2-36-38.8-38.9-64.6-.4-5.8-.4-11.7,0-17.5,3-25.3,15.9-50.1,37.3-64.6Z"/>
      <g>
        <path d="m327.5,1053.3c6.5.7,13.1.3,19.7.4,25.1,56.8,49.4,113.9,74.8,170.5-8.3,0-16.7-.2-24.9.2-6.5-15.1-12.9-30.2-19-45.4l-2-.2c-27.3-.8-54.6-.5-81.8-.1-.5,1.4-1.3,4.2-1.8,5.6-5.4,13.3-11,26.5-15.7,40-8-.3-16-.2-24,.1,24.8-57,49-114.4,74.7-171.1Zm-21.8,98.8c-.7,1.9-1.4,3.7-2.1,5.6,22-.2,44,.2,66-.3l-1.3-1.8c-10.4-25.5-21.1-50.8-31.8-76.1-9.9,24.4-20,48.6-30.8,72.6Z"/>
        <path d="m1584.4,1053.9c7.1-.3,14.2-.2,21.2.1,2.2,8.4,6.4,16.1,9.8,24.1,19.1,42.6,37.3,85.6,56.8,128,2.4,6.1,5,12.1,7.2,18.2-8.3,0-16.6-.1-24.9,0-4.4-11-8.8-21.9-13.7-32.7-1.9-4.3-3.7-8.7-5.5-13-26.9-.1-53.9-.5-80.8.2-.8.5-2.3,1.5-3.1,2-1.5,3.5-2.8,7-4.2,10.5-4.1,10.9-9.1,21.6-12.5,32.7-7.8.3-15.6.2-23.4.3,0-.9.1-2.7.2-3.7,13.2-26.9,23.9-54.9,36.1-82.3,12-28.3,25.5-55.9,36.8-84.4Zm8.7,27.5c-6.2,19.5-16.2,37.5-22.6,56.9l-1.1.6c-2.4,5-4.5,10.2-6.5,15.4-.5.9-1.5,2.7-2,3.7,22.1-.4,44.3.1,66.4-.4-.5-.8-1.5-2.4-2.1-3.2-2.8-7.3-6.1-14.4-8.7-21.8l-1.1,1.1c.1-3.4-1.6-6.4-2.7-9.5-6.1-14.2-12.1-28.4-17.4-42.9-.4.1-1.6.1-2.2.1Z"/>
      </g>
      <path d="m1357,1053.8c44.4,0,88.8-.1,133.1,0,.4,6.7.3,13.4.8,20.1-18.3.5-36.6.1-54.8.4.1,49.5-.5,99,.3,148.5l-.2,1.8c-7.8-.4-15.5-.4-23.3,0l-.4-1.7c1.4-48.7.3-97.5.6-146.3l-.1-2.2c-18.6-.7-37.3,0-55.9-.3-.4-6.8-.4-13.5-.1-20.3Z"/>
    </g>
  </g>
</svg>